<?xml version="1.0" encoding="utf-8"?>
<!-- Generator: Adobe Illustrator 16.0.0, SVG Export Plug-In . SVG Version: 6.00 Build 0)  -->
<!DOCTYPE svg PUBLIC "-//W3C//DTD SVG 1.1//EN" "http://www.w3.org/Graphics/SVG/1.1/DTD/svg11.dtd">
<svg version="1.1" id="Layer_1" xmlns="http://www.w3.org/2000/svg" xmlns:xlink="http://www.w3.org/1999/xlink" x="0px" y="0px"
	 width="345px" height="345px" viewBox="0 0 345 345" enable-background="new 0 0 345 345" xml:space="preserve">
<rect x="29.905" y="31" fill="#6DCDB1" width="283.19" height="283.465"/>
<g>
	<path fill="#FFFFFF" d="M301.684,148.541v-1.919h0.89c0.993,0,1.356,0.353,1.356,0.959c0,0.609-0.438,0.959-1.226,0.959H301.684
		L301.684,148.541L301.684,148.541z M303.602,149.145c0.856-0.136,1.51-0.624,1.51-1.597c0-1.367-1.296-1.676-2.494-1.676h-2.083
		v5.488h1.151v-2.08h0.763l1.516,2.08h1.501L303.602,149.145L303.602,149.145L303.602,149.145z"/>
	<path fill="#FFFFFF" d="M305.813,161.396l-0.335-0.092c-1.472,0.63-3.166,0.563-4.796,0.757c-2.322-1.371-4.608-2.824-6.991-4.097
		c-0.906,0.687-1.848,1.609-2.949,1.907c-1.268,0.201-2.71,0.203-3.734-0.601c-1.696-1.036-2.666-2.877-2.549-4.809l2.396-10.602
		l-0.112-0.348c-4.278,0.282-8.696,0.112-13.06,0.117c-1.683,0.239-1.086,2.241-1.94,3.205c-2.398-1.343-4.833-2.619-7.606-3.185
		c-8.17-2.016-16.208,1.413-21.245,8.064c-1.356,1.474-1.774,3.472-3.426,4.736l-10.554,6.491c-0.249,0.086-0.606,0.318-0.826,0.013
		c-1.353-4.949-5.77-9.515-10.621-11.095c-10.064-2.624-19.657,1.142-27.08,8.07c-0.371,1.098-0.423,2.323-0.793,3.421
		c-5.751,3.842-11.397,7.984-17.177,11.756c-0.235,0.188-0.718,0.172-0.883-0.13c-0.793-4.86-3.359-9.62-7.613-12.86
		c-1.02-0.617-1.926-1.649-3.18-1.652l-5.338,4.602l-15.048,12.878l-13.315,11.392c-2.316,1.457-5.16,1.856-7.988,1.285
		c-0.332-0.159-1.029-0.02-0.992-0.545l13.604-11.732l0.27-0.399l0.345-0.511c-0.8-1.572-1.476-3.184-2.696-4.618
		c-4.281-5.766-12.259-7.341-18.852-5.395c-5.133,1.55-9.191,5.749-11.436,10.521H99.29c-0.662,1.409-1.166,2.868-1.492,4.323
		l-25.867,16.598l-2.407,1.543c-0.212,0.087-0.609,0.366-0.752-0.053c0.002-0.244,0.007-0.866,0.015-1.492h0.03
		c0.197-3.932,1.035-7.727,2.5-11.209c1.403-3.528,3.722-6.879,6.623-9.702h0.003c5.076-4.94,11.936-8.264,18.806-8.092
		c0.523-0.101,0.662-0.616,0.488-1.058c-3.464-4.207-6.191-8.656-8.618-13.204c-4.033,0.673-7.51,2.987-10.957,5.371
		c-5.794,4.77-9.983,10.513-12.737,16.975l0,0c-2.608,6.117-3.924,12.882-4.098,20.068l-0.165,0.012
		c-4.781-6.131-7.859-12.898-9.669-20.076v-0.002c-0.316-1.265-0.596-2.538-0.838-3.82c-2.067-9.176,0.492-19.39,6.253-26.349
		c1.222-1.756,2.992-3.218,4.064-5.035c-3.886-4.084-7.502-8.562-9.629-13.478c-0.534-1.179-0.838-2.495-1.464-3.577
		c-1.981,0.816-3.806,2.104-5.545,3.637c-7.958,7.401-12.514,16.745-11.875,28.136c0.417,7.204,2.279,14.028,5.234,20.487l0,0
		c3.412,7.452,8.278,14.418,14.062,20.917c2.136,2.403,4.398,4.74,6.758,7.017c-1.17,0.514-2.463,0.593-3.705,0.899
		c-4.059,0.827-8.232,1.56-12.196,2.493c-0.967,3.715-2.978,6.898-5.634,9.762c-0.135,0.196-0.439,0.601-0.054,0.746l89.896-17.271
		l18.502-3.646l21.411-4.216c5.981-1.103,11.898-2.43,18.145-3.104c0.245,1.894-0.631,3.603-0.675,5.68
		c3.96-0.63,7.846-1.449,11.762-2.184l0.499-0.235l1.216-6.527l0.378-0.52l50.649-9.811l4.784-0.926l32.459-6.404l22.896-4.204
		l0.514-0.44C307.629,164.638,306.523,163.01,305.813,161.396z M105.344,197.023l-9.567,1.835l-17.866,3.422l5.248-3.422
		l14.693-9.575c1.878,0.166,2.256,2.355,3.604,3.45c1.429,1.634,3.31,2.736,4.94,3.957L105.344,197.023z M109.82,187.114
		c-0.431-1.461-0.419-3.315,0.329-4.679c1.617-2.475,4.521-3.484,7.48-2.819c0.773-0.014,1.189,0.662,1.705,1.141l-0.098,0.403
		l-8.459,6.974C110.358,188.004,109.997,187.504,109.82,187.114z M152.153,182.896c-1.305,2.191-5.326,1.028-4.699,4.308
		c0.258,0.734,0.932,1.393,1.229,2.062c-4.892,1.178-9.91,1.971-14.9,2.85l0.248-0.593l15.883-13.581l1.439-1.232
		c0.212-0.087,0.555-0.063,0.752,0.053l0.678,1.18l0.301,0.523C153.495,179.957,153.161,181.757,152.153,182.896z M186.054,182.385
		c-5.247,1.118-10.527,2.201-15.877,3.056c0.316-1.101,0.913-2.234,1.469-3.304c0.928-0.977,2.191-1.364,3.244-2.16l3.228-2.037
		l9.426-5.942l0.34,0.021c-0.282,1.926-0.475,3.949-0.791,5.921h0.085l-0.085,0.002
		C186.851,179.479,186.536,180.982,186.054,182.385z M204.2,179.282l-5.145,0.872l-0.316-0.364c0.145-0.562,0.251-1.347,0.36-1.949
		c0.103-0.496,0.237-0.977,0.492-1.396l0.342,0.022c0.633,0.6,1.321,1.08,2.052,1.473h0.008c0.807,0.433,1.671,0.76,2.573,1.029
		L204.2,179.282z M212.285,170.782c-1.169,1.489-2.88,2.12-4.738,1.922c-2.278-0.294-4.276-1.915-5.275-4.046
		c-0.818-2.05-0.737-4.889,1.074-6.468c1.827-1.354,4.738-1.222,6.594-0.018c1.146,0.811,2.35,2.002,2.787,3.327
		C213.46,167.048,213.312,169.391,212.285,170.782z M223.404,175.779c0.646-1.37,1.869-2.391,2.197-3.868l13.394-8.749
		c0.156-0.039,0.283-0.167,0.486-0.101c0.329,3.344,2.445,6.744,5.592,8.361L223.404,175.779z M260.726,162.763
		c-1.294,1.326-3.1,1.61-4.82,1.164c-1.697-0.509-3.499-2.014-3.922-3.815c-0.583-1.506-0.326-3.634,0.886-4.776
		c1.456-1.416,3.752-1.58,5.55-0.776c1.195,0.577,2.403,1.734,2.949,3C262.1,159.145,261.938,161.434,260.726,162.763z
		 M270.662,166.997c-0.145-0.623,0.668-0.941,0.795-1.513l0.894-1.981c1.396,0.403,2.215,1.994,3.768,2.102
		C274.554,166.381,272.574,166.687,270.662,166.997z"/>
	<path fill="#FFFFFF" d="M297.88,148.613L297.88,148.613l0.002-0.001c0-1.326,0.54-2.525,1.416-3.394
		c0.876-0.867,2.085-1.403,3.418-1.405l0,0h0.002h0.002l0,0c1.337,0,2.547,0.538,3.42,1.405c0.874,0.869,1.416,2.067,1.418,3.392
		l0,0v0.002l0,0l0,0c0,1.327-0.544,2.527-1.418,3.395l0,0c-0.875,0.867-2.085,1.403-3.418,1.404v0.002h-0.004l0,0v-0.002
		c-1.337,0-2.546-0.537-3.422-1.406c-0.874-0.867-1.414-2.065-1.414-3.391L297.88,148.613L297.88,148.613L297.88,148.613z
		 M298.451,148.612L298.451,148.612L298.451,148.612l0.001,0.002h-0.001c0.001,1.168,0.478,2.226,1.252,2.991
		c0.77,0.766,1.838,1.239,3.017,1.239l0,0l0,0h0.002l0,0c1.175,0,2.241-0.473,3.016-1.239h-0.002
		c0.773-0.766,1.254-1.825,1.254-2.993h-0.002l0,0v-0.002h0.002c0-1.166-0.48-2.224-1.252-2.99
		c-0.772-0.766-1.839-1.241-3.016-1.241v0.001h-0.002h-0.002v-0.001c-1.177,0-2.243,0.475-3.015,1.241
		C298.929,146.384,298.451,147.444,298.451,148.612L298.451,148.612z"/>
</g>
</svg>
