<?xml version="1.0" encoding="utf-8"?>
<!-- Generator: Adobe Illustrator 16.0.0, SVG Export Plug-In . SVG Version: 6.00 Build 0)  -->
<!DOCTYPE svg PUBLIC "-//W3C//DTD SVG 1.1//EN" "http://www.w3.org/Graphics/SVG/1.1/DTD/svg11.dtd">
<svg version="1.1" id="Layer_1" xmlns="http://www.w3.org/2000/svg" xmlns:xlink="http://www.w3.org/1999/xlink" x="0px" y="0px"
	 width="345px" height="345px" viewBox="0 0 345 345" enable-background="new 0 0 345 345" xml:space="preserve">
<g>
	<path fill="#FFFFFF" stroke="#4D4545" stroke-miterlimit="10" d="M171.435,302.295c2.194,0,4.288-0.283,6.213-0.863
		c2.006-0.597,3.91-1.521,5.656-2.748c1.68-1.184,3.227-2.617,4.719-4.408c1.369-1.635,2.652-3.528,3.944-5.771
		c0,0,116.341-202.817,117.313-204.608c0.99-1.783,1.8-3.633,2.433-5.5c0.641-1.873,1.09-3.761,1.338-5.604
		c0.263-1.91,0.313-3.791,0.149-5.581c-0.089-0.959-0.493-3.895-1.738-6.547c-1.228-2.602-2.604-4.236-4.354-5.878
		c-1.763-1.65-4.929-3.457-7.581-4.318c-1.486-0.482-3.188-0.892-4.973-1.123c-1.658-0.223-3.484-0.327-5.582-0.327H53.894
		c-2.096,0-3.918,0.104-5.582,0.327c-1.769,0.231-3.484,0.64-4.964,1.123c-2.66,0.862-5.827,2.669-7.581,4.318
		c-1.762,1.642-3.136,3.277-4.362,5.878c-1.25,2.653-1.643,5.588-1.731,6.547c-0.171,1.792-0.12,3.671,0.141,5.581
		c0.252,1.843,0.699,3.731,1.337,5.604c0.633,1.866,1.451,3.716,2.43,5.5c0.981,1.792,117.32,204.608,117.32,204.608
		c1.287,2.242,2.571,4.141,3.938,5.771c1.494,1.791,3.039,3.228,4.726,4.408c1.746,1.227,3.648,2.151,5.647,2.748
		C167.139,302.012,169.243,302.295,171.435,302.295"/>
	<path fill="#020202" stroke="#4D4545" stroke-miterlimit="10" d="M53.899,54.53c-3.656,0-6.376,0.358-8.769,1.161
		c-4.535,1.53-7.573,4.266-9.075,8.123c-1.866,4.816-0.981,11.325,2.363,17.428L155.692,285.76
		c4.415,7.729,9.12,11.028,15.742,11.028c6.628,0,11.332-3.299,15.746-11.028L304.45,81.241c3.343-6.101,4.234-12.612,2.364-17.428
		c-1.496-3.857-4.541-6.593-9.075-8.123c-2.39-0.804-5.105-1.161-8.772-1.161H53.899V54.53z"/>
	<polygon fill="#FFFFFF" stroke="#4D4545" stroke-miterlimit="10" points="277.675,113.168 268.436,129.28 216.704,129.28 
		256.509,150.083 250.443,160.658 216.704,142.063 216.704,219.503 200.577,247.609 200.577,113.168 	"/>
	<polygon fill="#FFFFFF" stroke="#4D4545" stroke-miterlimit="10" points="65.197,113.168 74.435,129.28 126.167,129.28 
		86.375,150.083 92.435,160.658 126.167,142.063 126.167,219.503 142.296,247.609 142.296,113.168 	"/>
	<path fill="#FFFFFF" stroke="#4D4545" stroke-miterlimit="10" d="M196.577,91.533V70.532h-3.722c-1.393,0-1.873,0.683-2.768,1.933
		l-5.761,8.123l-6.369-10.055h-4.013c-1.321,0-1.53,1.204-1.53,1.917v19.084h4.594v-13.84l6.214,9.313h1.954l6.511-9.253v13.779
		H196.577L196.577,91.533z"/>
	<path fill="#FFFFFF" stroke="#4D4545" stroke-miterlimit="10" d="M206.699,85.054c0.736,0,3.348-0.082,5.781-1.161
		c3.146-1.383,4.733-3.79,4.733-7.187c0-1.858-0.741-6.184-7.671-6.184h-7.214c-1.332,0-1.522,1.212-1.522,1.925v19.084h5.577v-6.48
		h0.148L206.699,85.054 M206.389,81.56v-7.551h1.901c3.517,0,4.044,2.073,4.044,3.314c0,4.043-4.697,4.244-5.643,4.244
		c-0.104,0-0.162,0-0.162,0L206.389,81.56z"/>
	<path fill="#FFFFFF" stroke="#4D4545" stroke-miterlimit="10" d="M168.188,70.524h-4.057c-1.331,0-1.524,1.212-1.524,1.925v11.319
		c0,3.791-2.051,4.578-3.76,4.578c-1.723,0-3.77-0.788-3.77-4.578V70.524h-4.058c-1.331,0-1.53,1.212-1.53,1.925v11.742
		c0,3.701,1.62,8.107,9.358,8.107c7.723,0,9.341-4.407,9.341-8.107V70.524L168.188,70.524z"/>
	<path fill="#FFFFFF" stroke="#4D4545" stroke-miterlimit="10" d="M139.671,91.533h5.589V70.524h-4.058
		c-1.331,0-1.531,1.212-1.531,1.925V91.533L139.671,91.533z"/>
	<path fill="#FFFFFF" stroke="#4D4545" stroke-miterlimit="10" d="M240.249,91.533V70.532h-4.052c-1.338,0-1.532,1.211-1.532,1.924
		v3.508l-0.117,0.023c-2.581,0.492-5.182,1.487-7.96,3.039l-0.209,0.112v-8.604h-4.059c-1.332,0-1.531,1.211-1.531,1.925v10.404
		l-0.059,0.043c-0.861,0.648-1.664,1.287-2.379,1.85l-0.17,0.133c-14.472,11.357-28.884,16.478-46.756,16.595
		c-0.178,0-0.372,0-0.551,0c-8.233,0.007-16.125-1.359-22.839-3.947c-7.819-3.016-13.719-7.505-17.546-13.361l-0.088-0.15
		l0.156-0.06c3.24-1.366,4.882-3.813,4.882-7.254c0-1.865-0.743-6.183-7.669-6.183h-7.208c-1.332,0-1.531,1.211-1.531,1.924v19.078
		h5.648v-6.48l0.141,0.007c0,0,0.127,0,0.326,0h0.074l0.046,0.044c7.358,8.822,21.337,19.323,46.16,19.323
		c18.595,0,33.738-5.195,49.132-16.833l0.229-0.171v4.109h5.59v-8.176l0.06-0.044c2.981-1.925,5.543-3.002,8.057-3.389l0.171-0.023
		V91.53h5.585L240.249,91.533L240.249,91.533z M124.979,81.575c-0.105,0-0.171,0-0.171,0l-0.127-0.008v-7.55h1.843
		c3.509,0,4.027,2.065,4.027,3.307C130.551,81.367,125.915,81.575,124.979,81.575"/>
	<path fill="#FFFFFF" stroke="#4D4545" stroke-miterlimit="10" d="M116.484,70.524H99.018c-1.239,0-1.508,1.055-1.508,1.925v3.078
		h6.675v16.001h5.611V75.527h5.15c1.347,0,1.539-1.212,1.539-1.926L116.484,70.524L116.484,70.524z"/>
</g>
</svg>
