<?xml version="1.0" encoding="utf-8"?>
<!-- Generator: Adobe Illustrator 16.0.0, SVG Export Plug-In . SVG Version: 6.00 Build 0)  -->
<!DOCTYPE svg PUBLIC "-//W3C//DTD SVG 1.1//EN" "http://www.w3.org/Graphics/SVG/1.1/DTD/svg11.dtd">
<svg version="1.1" id="Layer_1" xmlns="http://www.w3.org/2000/svg" xmlns:xlink="http://www.w3.org/1999/xlink" x="0px" y="0px"
	 width="345px" height="345px" viewBox="0 0 345 345" enable-background="new 0 0 345 345" xml:space="preserve">
<g>
	<polygon fill="#ED1C24" points="30,31 313.465,31 313.465,314.465 30,314.465 30,31 	"/>
	<path fill-rule="evenodd" clip-rule="evenodd" fill="#FFFFFF" d="M265.057,230.201c2.606,0,4.693-2.098,4.693-4.693
		c0-2.617-2.087-4.719-4.693-4.719c-2.619,0-4.692,2.102-4.692,4.719C260.364,228.104,262.438,230.201,265.057,230.201
		L265.057,230.201z M109.992,227.973l-14.754,16.113c-4.467,5.438-8.544,8.617-8.544,15.535c0,9.705,8.156,15.777,20.387,15.777
		h41.162v-28.592h-20.776v8.15h-9.707c-4.661,0.389-5.241-1.549-2.718-4.072l7.378-8.154c1.941-2.332,3.882-2.723,5.824-2.723
		h19.999v-19.219h-21.553C120.865,220.789,115.816,222.148,109.992,227.973L109.992,227.973z M235.805,220.789v19.221h20.969
		v-19.221H235.805L235.805,220.789z M235.805,242.92v32.479h20.969V242.92H235.805L235.805,242.92z M152.511,220.789v19.221h20.969
		v-19.221H152.511L152.511,220.789z M152.511,242.92v32.479h20.969V242.92H152.511L152.511,242.92z M177.073,220.789v19.221h20.969
		v-19.221H177.073L177.073,220.789z M211.245,220.789v19.221h20.967v-19.221H211.245L211.245,220.789z M197.848,244.279v-1.357
		h-20.774v4.273c0,2.91,1.357,6.602,2.717,8.928l8.739,13.787c3.301,4.271,5.436,9.121,16.503,9.121
		c11.065,0,12.231-4.85,15.726-9.121l8.736-13.787c1.36-2.326,2.718-6.018,2.718-8.928v-4.273h-20.772v1.357
		c-0.194,1.361-0.148,2.348-0.972,3.496l-4.078,6.406c-0.774,1.164-1.552,1.752-2.912,0l-4.658-6.598
		C197.996,246.434,198.042,245.641,197.848,244.279L197.848,244.279z M265.057,229.09c-2.051,0-3.578-1.496-3.578-3.582
		c0-2.111,1.527-3.604,3.578-3.604c2.014,0,3.577,1.492,3.577,3.604C268.634,227.594,267.07,229.09,265.057,229.09L265.057,229.09z
		 M266.122,225.828c0.866-0.061,1.329-0.428,1.329-1.326c0-1.295-0.77-1.496-1.897-1.496h-2.369v4.883h1.091v-2.061h0.758
		l1.089,2.061h1.186L266.122,225.828L266.122,225.828z M264.275,225.092v-1.23h1.055c0.473,0,1.102,0,1.102,0.498
		c0,0.617-0.31,0.732-0.853,0.732H264.275L264.275,225.092z"/>
</g>
</svg>
