<svg xmlns="http://www.w3.org/2000/svg"><symbol viewBox="0 0 46.206 36.213" id="icon-airplane"><title>airplane</title><path d="M14.024 31.18c.277-.285.727-.285 1.01-.007.277.275.277.733 0 1.01l-3.567 3.575c-.283.275-.733.275-1.01 0-.138-.139-.21-.32-.21-.502v-11.436c0-.27.145-.502.363-.625l25.668-17.112c.32-.218.763-.13.988.197.219.327.132.77-.195.988l-25.4 16.937v9.328l2.353-2.353zm0 0"/><path d="M13.311 27.175c-.275-.275-.275-.725 0-1.003.277-.275.735-.275 1.01 0l7.964 7.97 22.248-31.974v-.255l-42.214 12.257 9.14 9.147c.285.275.285.735 0 1.01-.275.275-.725.275-1.01 0l-9.998-9.997.007-.007c-.087-.08-.145-.182-.18-.305-.11-.37.108-.77.485-.88l44.22-12.838c.08-.035.167-.05.26-.05.393 0 .712.32.712.712v1.43c0 .138-.043.283-.13.407l-22.85 32.862-.007-.007-.08.102c-.277.275-.735.275-1.01 0l-8.567-8.581zm0 0"/></symbol><symbol viewBox="0 0 102.4 59.4" id="icon-arrow-plain"><title>plain arrow</title><polygon points="51.2,43 8.2,0 0,8.2 51.2,59.4 102.4,8.2 94.2,0"/></symbol><symbol viewBox="0 0 202.438 102.414" id="icon-arrow"><title>arrow</title><polygon points="151.229 0 143.042 8.188 180.271 45.417 0 45.417 0 56.997 180.271 56.997 143.042 94.227 151.229 102.414 202.438 51.207 151.229 0"/></symbol><symbol viewBox="0 0 134.141 120.535" id="icon-cart"><title>cart</title><path d="M131.378 22.727h-78.228a3.2 3.2 0 0 0-3.237 4.413l12.374 36.247a5.354 5.354 0 0 0 4.813 3.534h51.284a5.359 5.359 0 0 0 4.817-3.535l10.777-37.115a2.573 2.573 0 0 0-2.6-3.545zm0 0"/><path d="M71.927 108.681a11.7 11.7 0 1 1-11.7-11.7 11.7 11.7 0 0 1 11.7 11.7zm0 0"/><path d="M121.439 108.824a11.7 11.7 0 1 1-11.7-11.7 11.706 11.706 0 0 1 11.7 11.7zm0 0"/><path d="M123.795 78.825h-68.446l-27.394-78.825h-21.329a6.626 6.626 0 0 0 0 13.252h11.907l27.394 78.825h77.868a6.626 6.626 0 1 0 0-13.252zm0 0"/></symbol><symbol viewBox="0 0 39.723 39.723" id="icon-facebook"><title>Facebook</title><path d="M24.8 20.559h-3.23v11.52h-4.789v-11.52h-2.281v-4.07h2.277v-2.633c0-1.883.9-4.832 4.832-4.832l3.551.015v3.95h-2.574a.975.975 0 0 0-1.016 1.111v2.4h3.649zm-4.941-20.559a19.862 19.862 0 1 0 19.864 19.86 19.884 19.884 0 0 0-19.864-19.86z"/></symbol><symbol viewBox="0 0 512 512" id="icon-instagram-glyph"><title>Instagram</title><path d="M256 49.471c67.266 0 75.233.257 101.797 1.469 24.562 1.121 37.901 5.224 46.778 8.674 11.759 4.57 20.151 10.029 28.966 18.845 8.816 8.815 14.275 17.208 18.845 28.966 3.45 8.877 7.554 22.216 8.674 46.778 1.212 26.565 1.469 34.532 1.469 101.798s-.257 75.233-1.469 101.797c-1.121 24.562-5.225 37.901-8.674 46.778-4.57 11.759-10.029 20.151-18.845 28.966-8.816 8.816-17.208 14.275-28.966 18.845-8.877 3.45-22.216 7.554-46.778 8.674-26.56 1.212-34.527 1.469-101.797 1.469s-75.237-.257-101.797-1.469c-24.562-1.121-37.901-5.225-46.778-8.674-11.759-4.57-20.151-10.029-28.966-18.845-8.815-8.815-14.275-17.208-18.845-28.966-3.45-8.877-7.554-22.216-8.674-46.778-1.212-26.564-1.469-34.532-1.469-101.798s.257-75.233 1.469-101.797c1.121-24.562 5.224-37.901 8.674-46.778 4.57-11.759 10.029-20.151 18.845-28.966 8.815-8.815 17.208-14.275 28.966-18.845 8.877-3.45 22.216-7.554 46.778-8.674 26.564-1.213 34.531-1.469 101.797-1.469m0-45.392c-68.418 0-76.997.29-103.866 1.516-26.815 1.224-45.127 5.482-61.151 11.71-16.566 6.438-30.615 15.052-44.62 29.057-14.005 14.005-22.619 28.055-29.057 44.62-6.228 16.025-10.486 34.337-11.71 61.151-1.227 26.87-1.517 35.449-1.517 103.867s.29 76.997 1.516 103.866c1.224 26.815 5.482 45.127 11.71 61.151 6.438 16.566 15.052 30.615 29.057 44.62 14.005 14.005 28.055 22.619 44.62 29.057 16.025 6.228 34.337 10.486 61.151 11.71 26.87 1.226 35.449 1.516 103.866 1.516s76.997-.29 103.866-1.516c26.815-1.224 45.127-5.482 61.151-11.71 16.566-6.438 30.615-15.052 44.62-29.057 14.005-14.005 22.619-28.055 29.057-44.62 6.228-16.025 10.486-34.337 11.71-61.151 1.226-26.87 1.516-35.449 1.516-103.866s-.29-76.997-1.516-103.866c-1.224-26.815-5.482-45.127-11.71-61.151-6.438-16.566-15.052-30.615-29.057-44.62-14.005-14.005-28.055-22.619-44.62-29.057-16.025-6.228-34.337-10.486-61.151-11.71-26.868-1.227-35.447-1.517-103.865-1.517zM256 126.635c-71.446 0-129.365 57.918-129.365 129.365s57.919 129.365 129.365 129.365 129.365-57.919 129.365-129.365-57.919-129.365-129.365-129.365zm0 213.338c-46.377 0-83.974-37.596-83.974-83.973s37.596-83.974 83.974-83.974c46.377 0 83.974 37.596 83.974 83.974s-37.597 83.973-83.974 83.973z"/><circle cx="390.476" cy="121.524" r="30.23"/></symbol><symbol viewBox="0 0 39.7 39.7" id="icon-instagram"><title>Instagram</title><circle cx="19.9" cy="19.9" r="3.8"/><path d="M28.8 13.1c-.2-.5-.5-.9-.9-1.3s-.8-.6-1.3-.9c-.4-.2-1-.3-2.1-.4-1.2-.1-1.6-.1-4.6-.1-3.1 0-3.4 0-4.6.1-1.1.1-1.7.2-2.1.4-.5.2-.9.5-1.3.9s-.6.8-.9 1.3c-.2.4-.3 1-.4 2.1-.1 1.2-.1 1.6-.1 4.6 0 3.1 0 3.4.1 4.6.1 1.1.2 1.7.4 2.1.2.5.5.9.9 1.3s.8.6 1.3.9c.4.2 1 .3 2.1.4 1.2.1 1.6.1 4.6.1s3.4 0 4.6-.1c1.1-.1 1.7-.2 2.1-.4.5-.2.9-.5 1.3-.9s.6-.8.9-1.3c.2-.4.3-1 .4-2.1.1-1.2.1-1.6.1-4.6 0-3.1 0-3.4-.1-4.6-.1-1.1-.3-1.7-.4-2.1zm-8.9 12.6c-3.2 0-5.9-2.6-5.9-5.9s2.6-5.9 5.9-5.9 5.9 2.6 5.9 5.9-2.7 5.9-5.9 5.9zm6.1-10.6c-.8 0-1.4-.6-1.4-1.4 0-.8.6-1.4 1.4-1.4s1.4.6 1.4 1.4c-.1.8-.7 1.4-1.4 1.4zM19.9 0c-11 0-19.9 8.9-19.9 19.9s8.9 19.9 19.9 19.9 19.9-8.9 19.9-19.9c-.1-11-9-19.9-19.9-19.9zm11.3 24.6c-.1 1.2-.2 2-.5 2.8-.3.8-.7 1.4-1.3 2-.6.6-1.3 1-2 1.3-.7.3-1.6.5-2.8.5-1.2.1-1.6.1-4.7.1s-3.5 0-4.7-.1c-1.2-.1-2-.2-2.8-.5-.8-.3-1.4-.7-2-1.3-.6-.6-1-1.3-1.3-2-.3-.7-.5-1.6-.5-2.8-.1-1.2-.1-1.6-.1-4.7s0-3.5.1-4.7c.1-1.2.2-2 .5-2.8.3-.8.7-1.4 1.3-2 .6-.6 1.3-1 2-1.3.7-.3 1.6-.5 2.8-.5 1.2-.1 1.6-.1 4.7-.1s3.5 0 4.7.1c1.2.1 2 .2 2.8.5.8.3 1.4.7 2 1.3.6.6 1 1.3 1.3 2 .3.7.5 1.6.5 2.8.1 1.2.1 1.6.1 4.7s0 3.5-.1 4.7z"/></symbol><symbol viewBox="0 0 609.543 93.127" id="icon-logo"><title>Ugmonk</title><path d="M59.563 1.785h-8.272a2.1 2.1 0 0 0-2.1 2.1v58.472a20.666 20.666 0 0 1-1.32 7.375 18.111 18.111 0 0 1-3.7 6 18.329 18.329 0 0 1-5.8 4.107 18.031 18.031 0 0 1-7.547 1.535 18.03 18.03 0 0 1-7.547-1.535 18.312 18.312 0 0 1-5.8-4.107 18.109 18.109 0 0 1-3.7-6 20.66 20.66 0 0 1-1.32-7.375v-58.476a2.1 2.1 0 0 0-2.1-2.1h-8.257a2.1 2.1 0 0 0-2.1 2.1v58.476a31.974 31.974 0 0 0 2.2 11.843 30.05 30.05 0 0 0 6.2 9.746 29.759 29.759 0 0 0 9.688 6.689 31.521 31.521 0 0 0 12.738 2.5 31.623 31.623 0 0 0 12.707-2.494 29.746 29.746 0 0 0 9.721-6.691 29.968 29.968 0 0 0 6.2-9.779 32.047 32.047 0 0 0 2.2-11.8v-58.49a2.1 2.1 0 0 0-2.091-2.096z"/><path d="M184.736 47.59h-41.82a2.1 2.1 0 0 0-2.1 2.1v7.557a2.1 2.1 0 0 0 2.1 2.1h21.684a32.447 32.447 0 0 1-2.492 7.709 24.028 24.028 0 0 1-5.643 7.609 25.1 25.1 0 0 1-8.551 4.936 38.676 38.676 0 0 1-26.381-1.144 31.773 31.773 0 0 1-10.592-7.725 33.142 33.142 0 0 1-6.439-11 38.724 38.724 0 0 1-2.2-12.953 39.158 39.158 0 0 1 2.316-13.356 34.5 34.5 0 0 1 6.565-11.191 31.507 31.507 0 0 1 24.148-10.6 33.373 33.373 0 0 1 9.076 1.2 28.947 28.947 0 0 1 7.471 3.211 20.346 20.346 0 0 1 5.318 4.74 18.708 18.708 0 0 1 3.109 5.8 2.1 2.1 0 0 0 2 1.467h8.346a2.1 2.1 0 0 0 2.049-2.537 28.34 28.34 0 0 0-4.4-10.12 32.5 32.5 0 0 0-8.133-8.141 38.992 38.992 0 0 0-11.239-5.352 47.715 47.715 0 0 0-13.713-1.9 44.439 44.439 0 0 0-18.937 3.916 44.612 44.612 0 0 0-23.346 25.418 51.259 51.259 0 0 0-.119 34.746 43.261 43.261 0 0 0 23.371 25.143 47.829 47.829 0 0 0 19.865 3.9 48.068 48.068 0 0 0 16.1-2.559 38.176 38.176 0 0 0 12.586-7.307 37.372 37.372 0 0 0 8.647-11.309 43.866 43.866 0 0 0 4.006-12.613h7.346a2.1 2.1 0 0 0 2.1-2.1v-7.549a2.1 2.1 0 0 0-2.098-2.096z"/><path d="M295.1 1.785h-8.031a2.092 2.092 0 0 0-1.924 1.268s-27.127 62.806-27.916 64.767-2.1 2.1-2.8 0c-.514-1.547-27.955-64.764-27.955-64.764a2.1 2.1 0 0 0-1.93-1.271h-8.031a2.1 2.1 0 0 0-2.1 2.1v85.3a2.1 2.1 0 0 0 2.1 2.1h8.269a2.1 2.1 0 0 0 2.1-2.1v-48.976c0-2.272 1.758-2.832 2.385-1.049l21.245 50.84a2.094 2.094 0 0 0 1.934 1.287h6.6a2.1 2.1 0 0 0 1.938-1.287s19.3-47.83 21.057-50.838c1.223-2.1 2.691-1.746 2.691.352v49.672a2.1 2.1 0 0 0 2.1 2.1h8.27a2.1 2.1 0 0 0 2.1-2.1v-85.305a2.1 2.1 0 0 0-2.102-2.096z"/><path d="M406.988 14.238a44.888 44.888 0 0 0-14.43-10.33 49.189 49.189 0 0 0-38.43 0 45.072 45.072 0 0 0-14.471 10.326 44.349 44.349 0 0 0-9.066 14.889 50.569 50.569 0 0 0 0 34.854 44.063 44.063 0 0 0 23.537 25.244 49.2 49.2 0 0 0 38.43 0 44.61 44.61 0 0 0 14.434-10.363 46.143 46.143 0 0 0 9.125-14.891 49.085 49.085 0 0 0 0-34.861 45.807 45.807 0 0 0-9.129-14.868zm-2.686 45.4a34.475 34.475 0 0 1-6.6 11.08 32.045 32.045 0 0 1-24.359 10.658 31.912 31.912 0 0 1-13.889-2.916 32.472 32.472 0 0 1-10.381-7.738 34.7 34.7 0 0 1-6.568-11.084 37.871 37.871 0 0 1-2.31-13.107 38.366 38.366 0 0 1 2.313-13.172 34.527 34.527 0 0 1 6.566-11.137 31.52 31.52 0 0 1 24.27-10.6 31.865 31.865 0 0 1 24.359 10.6 34.329 34.329 0 0 1 6.6 11.131 38.337 38.337 0 0 1 2.314 13.172 37.848 37.848 0 0 1-2.317 13.116z"/><path d="M510.291 1.785h-8.269a2.1 2.1 0 0 0-2.1 2.1v63.515l-39.117-64.6a2.1 2.1 0 0 0-1.795-1.01h-9.16a2.1 2.1 0 0 0-2.1 2.1v85.3a2.1 2.1 0 0 0 2.1 2.1h8.268a2.1 2.1 0 0 0 2.1-2.1v-63.629l39.119 64.711a2.1 2.1 0 0 0 1.795 1.012h9.162a2.1 2.1 0 0 0 2.1-2.1v-85.303a2.1 2.1 0 0 0-2.103-2.096z"/><path d="M568.391 46.533l40.551-41.18a2.1 2.1 0 0 0-1.494-3.568h-10.59a2.093 2.093 0 0 0-1.486.617l-36.272 36.491v-35.012a2.1 2.1 0 0 0-2.1-2.1h-8.268a2.1 2.1 0 0 0-2.1 2.1v85.3a2.1 2.1 0 0 0 2.1 2.1h8.268a2.1 2.1 0 0 0 2.1-2.1v-35.005l36.275 36.49a2.1 2.1 0 0 0 1.486.617h10.59a2.1 2.1 0 0 0 1.494-3.568z"/></symbol><symbol viewBox="0 0 78.5 126.6" id="icon-mark"><title>Ugmonk</title><path d="M55.7 20.9h-4.4a1.11 1.11 0 0 0-1.1 1.1v29.3a11 11 0 0 1-22 0v-29.3a1.11 1.11 0 0 0-1.1-1.1h-4.4a1.11 1.11 0 0 0-1.1 1.1v29.3a17.629 17.629 0 0 0 17.3 17.6h.8a17.7 17.7 0 0 0 17.3-17.6v-29.3a1.3 1.3 0 0 0-1.3-1.1zM77.1 0h-75.7a1.367 1.367 0 0 0-1.4 1.4v123.8a1.367 1.367 0 0 0 1.4 1.4h75.7a1.367 1.367 0 0 0 1.4-1.4v-123.8a1.367 1.367 0 0 0-1.4-1.4zm-70.7 7.8v-.7a.789.789 0 0 1 .8-.8h64.3a.789.789 0 0 1 .8.8v57.3l-31.9 31.9-.5.5a.785.785 0 0 1-1.1 0l-.5-.5-31.9-31.9zm65.7 111v.7a.789.789 0 0 1-.8.8h-64.2a.789.789 0 0 1-.8-.8v-46.1l31.9 31.9a1.519 1.519 0 0 0 2 0l31.9-31.9z"/></symbol><symbol viewBox="0 0 43.8 45.1" id="icon-package"><title>package</title><path d="M43.3 9.4l-21-9.3c-.3-.1-.5-.1-.7 0l-21.1 9.3c-.3.2-.5.5-.5.9v24.3c0 .3.2.6.5.8l21.1 9.6c.1.1.2.1.4.1.1 0 .2 0 .3-.1l21.1-9.6c.3-.1.5-.4.5-.8v-24.3c-.1-.4-.2-.7-.6-.9zm-30.5 5.8c-.3.1-.5.4-.5.8v8.2l-4.1-1.9v-8.1l19.8-9.7 3.6 1.6-18.8 9.1zm9.1-13.4l4.1 1.8-18.2 8.8-4.8-2.2c-.1 0 18.9-8.4 18.9-8.4zm-.8 41.1l-19.4-8.8v-22.6l4.8 2.2v9.1c0 .3.2.6.5.8l5.8 2.7c.1.1.2.1.4.1s.3 0 .5-.1c.2-.2.4-.4.4-.7v-8.4l7.1 3.2v22.5zm.8-24l-6.7-3 18.4-8.9 7.3 3.2-19 8.7zm20.2 15.2l-19.4 8.9v-22.6l19.4-8.9v22.6z"/></symbol><symbol viewBox="0 0 374.963 386.464" id="icon-search"><title>Search</title><path d="M27.2 150.281a123.08 123.08 0 1 1 123.081 123.078 123.2 123.2 0 0 1-123.081-123.078zm233.242 102a150.04 150.04 0 0 0 40.118-102c-.001-82.735-67.322-150.281-150.279-150.281s-150.281 67.546-150.281 150.281 67.32 150.277 150.281 150.277a149.537 149.537 0 0 0 89.985-29.918l111.746 111.746a13.432 13.432 0 0 0 9.519 4.078 13.058 13.058 0 0 0 9.524-4.078 13.824 13.824 0 0 0 0-19.265z"/></symbol><symbol viewBox="0 0 50.4 48.5" id="icon-shirt"><title>shirt</title><path d="M13.2 21.6v26h24v-26c2.4.3 8.6 3.3 8.6 3.3l4.1-9.6c-5.8-3.6-16.7-6.7-16.7-6.7-1 4.6-7.2 4.4-8 4.5-.8-.1-7 .2-8-4.5 0 0-11 3.2-16.8 6.7l4.2 9.6c.1 0 6.2-2.9 8.6-3.3zm3-11.1c1 2 3.4 3.9 8.6 4.1h.6000000000000001c5.2-.2 7.6-2.1 8.6-4.1 2.9.9 9.3 3.1 13.7 5.4l-2.9 6.8c-2.1-.9-5.6-2.5-7.4-2.7h-.2c-.4 0-.8.1-1.1.4-.3.3-.6.7-.6 1.2v24.4h-20.7v-24.4c0-.5-.3-.9-.6-1.2-.3-.3-.7-.4-1.1-.4h-.2c-1.8.3-5.4 1.8-7.5 2.7l-2.9-6.7c4.4-2.4 10.9-4.6 13.7-5.5zM24.5 8.9c-2.9.1-5 .8-5.1.9-.4.1-.6.6-.5 1 .1.3.4.5.8.5l.3.1s1.7-.6 4-.6h3c1.2 0 2.4.2 3.7.6.4.1.9-.1 1-.6.1-.4-.1-.9-.5-1.1-1.7-.6-3.4-.9-4.9-.9-.3-1.6.9-1.7 2.1-2.4 1.1-.6 1.7-1.9 1.5-3.2-.5-3.1-4.9-3.4-7.1-2.1-.9.5-.1 1.9.8 1.4 1-.6 2.3-.6 3.4-.3 1.4.4 1.8 2 .6 2.8-.8.5-1.7.7-2.4 1.4-.8.7-.9 1.6-.7 2.5"/></symbol><symbol viewBox="0 0 22.281 18.117" id="icon-twitter-glyph"><title>Twitter</title><path d="M20.004 4.519l.011.594c.002 7.18-5.816 13.002-12.996 13.004-2.488.001-4.924-.712-7.019-2.055 2.418.291 4.852-.389 6.769-1.891-1.955-.038-3.67-1.314-4.269-3.176.283.055.571.083.859.082.405.001.809-.053 1.2-.16-2.133-.43-3.667-2.304-3.668-4.48v-.059c.634.354 1.345.55 2.071.57-2.009-1.34-2.63-4.011-1.418-6.1 2.321 2.856 5.745 4.592 9.421 4.777-.58-2.459.944-4.923 3.403-5.503 1.597-.376 3.273.131 4.393 1.33 1.026-.199 2.009-.574 2.907-1.109-.342 1.06-1.057 1.959-2.012 2.531.906-.106 1.791-.348 2.625-.718-.613.916-1.384 1.716-2.277 2.363z"/></symbol><symbol viewBox="0 0 39.723 39.723" id="icon-twitter"><title>Twitter</title><path d="M28.723 15.317l.011.594a13 13 0 0 1-20.015 10.949 9.191 9.191 0 0 0 6.769-1.891 4.578 4.578 0 0 1-4.269-3.176 4.391 4.391 0 0 0 .859.082 4.517 4.517 0 0 0 1.2-.16 4.572 4.572 0 0 1-3.668-4.48.293.293 0 0 1 0-.059 4.511 4.511 0 0 0 2.071.57 4.574 4.574 0 0 1-1.418-6.1 12.979 12.979 0 0 0 9.421 4.777 4.575 4.575 0 0 1 7.796-4.173 9.037 9.037 0 0 0 2.907-1.109 4.591 4.591 0 0 1-2.012 2.531 9.06 9.06 0 0 0 2.625-.718 9.3 9.3 0 0 1-2.277 2.363zm-8.864-15.317a19.862 19.862 0 1 0 19.864 19.86 19.884 19.884 0 0 0-19.864-19.86z"/></symbol></svg>