<?xml version="1.0" encoding="utf-8"?>
<!-- Generator: Adobe Illustrator 16.0.0, SVG Export Plug-In . SVG Version: 6.00 Build 0)  -->
<!DOCTYPE svg PUBLIC "-//W3C//DTD SVG 1.1//EN" "http://www.w3.org/Graphics/SVG/1.1/DTD/svg11.dtd">
<svg version="1.1" id="Layer_1" xmlns="http://www.w3.org/2000/svg" xmlns:xlink="http://www.w3.org/1999/xlink" x="0px" y="0px"
	 width="345px" height="345px" viewBox="0 0 345 345" enable-background="new 0 0 345 345" xml:space="preserve">
<polygon fill="#00A994" points="30.191,95.02 314.81,95.02 314.81,250 30.191,250 "/>
<g>
	<path fill="#FFFFFF" d="M280.775,191.906l15.389,21.59h-13.35l-8.709-14.126l-8.975,14.126h-36.447l-0.017-0.027v-40.185h38.67
		l6.827,11.397l6.777-11.397h13.078L280.775,191.906L280.775,191.906z M258.165,204.808l9.23-12.901l-7.107-9.951l-20.742-0.002
		v6.053h17.741v8.68h-17.741v8.129L258.165,204.808L258.165,204.808z"/>
	<path fill="#FFFFFF" d="M227.409,186.688c0,4.998-3.047,9.186-7.815,10.854l9.075,15.926v0.026h-12.187l-7.691-14.062h-5.331
		v14.062h-10.878v-13.179c-0.997,3.328-2.722,6.294-5.097,8.669c-3.668,3.669-8.592,5.608-14.235,5.608
		c-5.643,0-10.565-1.939-14.235-5.608c-3.927-3.928-6.09-9.467-6.09-15.595c0-3.985,1-7.988,2.964-11.428h-7.961v31.532h-10.877
		v-31.532h-7.906c1.899,3.316,2.913,7.232,2.913,11.428c0,6.129-2.163,11.668-6.09,15.595c-3.67,3.669-8.592,5.608-14.235,5.608
		c-5.643,0-10.566-1.939-14.236-5.608c-2.498-2.499-4.279-5.651-5.246-9.191v13.701H81.923v-26.98l-6.88,26.98h-9.476l-7.102-27.086
		v27.086h-9.998v-40.213H63.79l6.549,27.503l6.758-27.503H92.25v13.837c2.22-8.118,8.816-14.934,19.482-14.934
		c5.643,0,10.566,1.939,14.235,5.608c0.3,0.3,0.586,0.612,0.865,0.931v-5.442h31.312v5.483c3.413-3.944,8.472-6.581,15.105-6.581
		c5.643,0,10.566,1.939,14.234,5.609c2.376,2.374,4.1,5.342,5.097,8.667v-13.181h20.105c4.987,0,8.789,1.275,11.299,3.786
		C226.258,179.338,227.409,182.575,227.409,186.688L227.409,186.688z M111.733,205.255c6.966,0,9.448-6.128,9.448-11.865
		c0-4.027-1.148-7.392-3.234-9.477c-1.584-1.586-3.676-2.39-6.214-2.39c-2.668,0-4.829,0.807-6.417,2.394
		c-2.011,2.012-3.031,5.2-3.031,9.473c0,2.355,0.414,6.725,3.187,9.499C107.042,204.459,109.148,205.255,111.733,205.255
		L111.733,205.255z M173.25,205.255c6.967,0,9.447-6.128,9.447-11.865c0-4.027-1.146-7.392-3.231-9.477
		c-1.586-1.586-3.677-2.39-6.216-2.39c-2.668,0-4.828,0.807-6.417,2.394c-2.011,2.012-3.031,5.2-3.031,9.473
		c0,2.355,0.413,6.725,3.187,9.499C168.559,204.459,170.665,205.255,173.25,205.255L173.25,205.255z M211.853,191.081
		c3.105-0.053,4.68-1.644,4.68-4.725c0-3.079-1.574-4.669-4.669-4.724h-8.405v9.448
		C205.402,191.081,211.861,191.081,211.853,191.081L211.853,191.081z"/>
</g>
<path fill="#FFFFFF" d="M158.056,116.208c4.546-0.895,8.663-0.9,13.561-0.9c20.232,0,36.694,9.388,36.694,19.186
	c0,11.278-16.402,19.127-36.636,19.127l0,0c-20.233,0-35.226-7.696-34.812-16.236c0.314-6.505,5.486-10.297,18.375-11.424
	c10.299-0.899,13.716-1.55,13.437-3.953c-0.281-2.41-4.928-3.985-10.619-4.754L158.056,116.208L158.056,116.208z"/>
<g>
	<path fill="#FFD400" stroke="#FFCC40" stroke-width="0.5" d="M166.41,117.139c1.042,0.34,4.674,1.883,4.641,5.142
		c-0.047,4.72-7.3,4.817-13.353,5.47c-6.726,0.727-10.537,1.202-13.861,2.953c-1.931,1.017-4.686,2.62-4.828,6.88
		c-0.148,4.512,6.751,8.652,11.189,10.453c12.521,5.079,23.365,3.887,29.712,3.234c6.348-0.651,15.006-3.076,19.155-6.006
		c4.15-2.929,6.54-5.288,6.987-8.868c0.448-3.581-0.329-7.208-6.072-11.265c-5.419-3.828-13.845-8.08-30.148-8.08l-3.421,0.029
		L166.41,117.139z"/>
</g>
<path fill="#00A994" d="M172.438,117.019c0,0,3.795-0.457,8.791,0.248c6.22,0.878,10.955,3.511,10.95,7.803
	c-0.004,2.777-1.687,4.636-3.788,5.847c-4.149,2.393-11.88,3.125-15.658,4.009c-3.818,0.894-7.916,2.542-8.077,6.319
	c-0.311,7.321,11.408,10.667,20.615,10.26l0,0c0,0-11.84,1.709-20.82-0.877c-8.785-2.529-11.581-7.462-11.461-11.094
	c0.106-3.233,2.932-7.751,15.383-9.033c12.45-1.282,15.497-3.229,15.74-6.586c0.245-3.356-3.851-6.716-11.662-6.655L172.438,117.019
	z"/>
</svg>
